<?xml version="1.0" encoding="utf-8"?>
<svg xmlns="http://www.w3.org/2000/svg" viewBox="0 0 500 500" style="shape-rendering: geometricprecision;">
  <g transform="matrix(0.497599, 0.000382, 0, 0.492156, -7.359332, -3.165463)" style="">
    <path style="opacity:1" fill="#2773c7" d="M 722.5,279.5 C 732.968,297.439 740.968,316.439 746.5,336.5C 753.182,362.411 755.349,388.744 753,415.5C 752.399,422.538 751.566,429.538 750.5,436.5C 745.32,463.376 735.986,488.709 722.5,512.5C 671.031,604.124 615.531,693.124 556,779.5C 543.441,797.448 530.275,814.948 516.5,832C 508.685,836.225 502.185,834.725 497,827.5C 476.97,799.319 456.804,771.319 436.5,743.5C 419.551,717.223 402.218,691.223 384.5,665.5C 375.25,648.658 365.25,632.324 354.5,616.5C 340.89,592.9 326.89,569.566 312.5,546.5C 304.611,531.726 296.444,517.06 288,502.5C 282.602,491.709 277.769,480.709 273.5,469.5C 268.409,453.362 264.742,437.029 262.5,420.5C 261.694,407.183 261.361,393.85 261.5,380.5C 262.974,364.341 265.974,348.341 270.5,332.5C 274.852,318.11 280.185,304.11 286.5,290.5C 310.592,247.241 344.259,213.407 387.5,189C 397.057,183.995 406.723,179.495 416.5,175.5C 431.121,170.095 446.121,166.095 461.5,163.5C 527.777,151.993 589.443,163.826 646.5,199C 677.53,220.527 702.863,247.361 722.5,279.5 Z"/>
  </g>
  <g transform="matrix(0.497599, 0.000382, 0, 0.492156, -7.359332, -3.165463)" style="">
    <path style="opacity: 1; fill: rgb(39, 43, 65);" d="M 654.5,241.5 C 658.405,246.944 663.238,252.277 669,257.5C 683.243,272.978 694.743,290.311 703.5,309.5C 703.957,310.298 704.624,310.631 705.5,310.5C 728.563,358.632 731.563,407.965 714.5,458.5C 707.678,474.169 700.011,490.169 691.5,506.5C 691.624,507.107 691.957,507.44 692.5,507.5C 638.452,602.344 580.619,694.677 519,784.5C 513.633,792.785 507.633,793.451 501,786.5C 494.667,777.833 488.333,769.167 482,760.5C 430.334,683.184 380.667,604.517 333,524.5C 318.624,500.414 306.957,475.081 298,448.5C 278.229,354.797 307.062,279.964 384.5,224C 440.486,188.618 500.819,178.618 565.5,194C 599.309,202.564 628.976,218.398 654.5,241.5 Z"/>
  </g>
  <g transform="matrix(0.497599, 0.000382, 0, 0.492156, -7.359332, -3.165463)" style="">
    <path style="opacity:1" fill="#2673c7" d="M 480.5,251.5 C 468.021,257.976 457.687,266.976 449.5,278.5C 445.056,286.662 441.889,295.328 440,304.5C 438.92,306.996 437.586,309.33 436,311.5C 435.517,310.552 435.351,309.552 435.5,308.5C 436.754,300.3 436.587,291.967 435,283.5C 434.196,282.196 433.029,281.529 431.5,281.5C 417.856,287.835 406.189,296.835 396.5,308.5C 392.734,313.03 389.734,318.03 387.5,323.5C 386.303,327.095 385.303,330.761 384.5,334.5C 382.686,334.772 380.686,334.939 378.5,335C 354.913,351.167 348.246,372.667 358.5,399.5C 359.939,401.588 360.606,403.921 360.5,406.5C 359.159,411.527 357.659,416.527 356,421.5C 345.257,400.465 341.257,378.132 344,354.5C 354.159,295.687 387.326,256.52 443.5,237C 456.644,233.962 469.977,232.296 483.5,232C 495.167,231.333 506.833,231.333 518.5,232C 518.833,232.333 519.167,232.667 519.5,233C 506.505,239.164 493.505,245.331 480.5,251.5 Z"/>
  </g>
  <g transform="matrix(0.497599, 0.000382, 0, 0.492156, -7.359332, -3.165463)" style="">
    <path style="opacity:1" fill="#2673c6" d="M 594.5,285.5 C 591.833,285.5 589.167,285.5 586.5,285.5C 587.049,272.883 581.049,266.05 568.5,265C 570.667,267.833 572.833,270.667 575,273.5C 575.498,276.817 575.665,280.15 575.5,283.5C 575.665,286.518 575.498,289.518 575,292.5C 563.356,300.985 552.189,309.985 541.5,319.5C 527.156,330.099 512.322,340.099 497,349.5C 493.54,358.203 489.873,366.87 486,375.5C 478.894,386.889 468.561,392.556 455,392.5C 447.541,391.345 440.375,389.345 433.5,386.5C 425.41,384.118 418.91,386.452 414,393.5C 411.822,397.194 409.655,400.861 407.5,404.5C 395.673,411.332 383.006,415.999 369.5,418.5C 369.97,413.982 371.137,409.649 373,405.5C 381.167,396 390,387.167 399.5,379C 409.28,376.193 419.28,374.526 429.5,374C 436.335,372.603 443.002,370.77 449.5,368.5C 455.075,369.403 460.075,367.903 464.5,364C 465.598,363.23 465.598,362.397 464.5,361.5C 474.359,355.483 483.526,348.483 492,340.5C 493.271,336.834 492.104,334.334 488.5,333C 491.866,330.816 495.533,329.483 499.5,329C 513.564,320.435 525.564,309.601 535.5,296.5C 536.822,296.67 537.989,296.337 539,295.5C 539.822,292.883 540.322,290.216 540.5,287.5C 540.703,285.61 540.037,284.11 538.5,283C 536.5,282.333 534.5,281.667 532.5,281C 523.5,280.333 514.5,280.333 505.5,281C 502.373,281.392 499.373,282.225 496.5,283.5C 496.167,282.833 495.833,282.167 495.5,281.5C 498.108,275.675 500.108,269.675 501.5,263.5C 503.293,261.574 504.293,259.241 504.5,256.5C 504.859,254.629 505.859,253.129 507.5,252C 515.561,246.301 524.228,241.635 533.5,238C 544.592,235.715 555.592,236.048 566.5,239C 568.792,240.29 570.792,241.957 572.5,244C 581.992,246.077 591.325,248.744 600.5,252C 607.837,261.105 608.504,270.771 602.5,281C 599.968,282.765 597.301,284.265 594.5,285.5 Z"/>
  </g>
  <g transform="matrix(0.497599, 0.000382, 0, 0.492156, -7.359332, -3.165463)" style="">
    <path style="opacity:1" fill="#2773c7" d="M 495.5,253.5 C 492.112,265.604 487.112,276.937 480.5,287.5C 471.962,299.449 461.295,309.115 448.5,316.5C 448.167,316 447.833,315.5 447.5,315C 450.465,309.181 452.298,303.014 453,296.5C 454.711,290.748 457.211,285.414 460.5,280.5C 470.236,268.821 481.903,259.821 495.5,253.5 Z"/>
  </g>
  <g transform="matrix(0.497599, 0.000382, 0, 0.492156, -7.359332, -3.165463)" style="">
    <path style="opacity:1" fill="#13263e" d="M 495.5,253.5 C 481.903,259.821 470.236,268.821 460.5,280.5C 460.565,280.062 460.399,279.728 460,279.5C 458.601,280.227 457.101,280.727 455.5,281C 453.042,285.288 450.042,289.121 446.5,292.5C 446.553,287.992 447.886,283.659 450.5,279.5C 450.376,278.893 450.043,278.56 449.5,278.5C 457.687,266.976 468.021,257.976 480.5,251.5C 480.56,252.043 480.893,252.376 481.5,252.5C 485.942,249.767 490.609,247.934 495.5,247C 494.328,247.419 493.328,248.085 492.5,249C 494.117,250.092 495.117,251.592 495.5,253.5 Z"/>
  </g>
  <g transform="matrix(0.497599, 0.000382, 0, 0.492156, -7.359332, -3.165463)" style="">
    <path style="opacity:1" fill="#0f1319" d="M 654.5,241.5 C 676.508,260.835 693.508,283.835 705.5,310.5C 704.624,310.631 703.957,310.298 703.5,309.5C 694.743,290.311 683.243,272.978 669,257.5C 663.238,252.277 658.405,246.944 654.5,241.5 Z"/>
  </g>
  <g transform="matrix(0.497599, 0.000382, 0, 0.492156, -7.359332, -3.165463)" style="">
    <path style="opacity:1" fill="#112133" d="M 594.5,285.5 C 592.708,286.309 590.708,286.809 588.5,287C 591.219,288.719 593.219,291.053 594.5,294C 593.551,294.617 592.718,294.451 592,293.5C 591.59,294.901 591.09,296.234 590.5,297.5C 587.42,297.466 584.753,298.466 582.5,300.5C 581.667,298.171 580,296.671 577.5,296C 577.952,294.388 579.285,293.388 581.5,293C 578.005,287.823 576.505,281.99 577,275.5C 576.817,278.365 576.317,281.031 575.5,283.5C 575.665,280.15 575.498,276.817 575,273.5C 572.833,270.667 570.667,267.833 568.5,265C 581.049,266.05 587.049,272.883 586.5,285.5C 589.167,285.5 591.833,285.5 594.5,285.5 Z"/>
  </g>
  <g transform="matrix(0.497599, 0.000382, 0, 0.492156, -7.359332, -3.165463)" style="">
    <path style="opacity:1" fill="#12243b" d="M 495.5,253.5 C 497.833,254.167 500.167,254.833 502.5,255.5C 502.367,258.925 503.033,259.258 504.5,256.5C 504.293,259.241 503.293,261.574 501.5,263.5C 498.567,272.126 494.4,280.126 489,287.5C 485.949,290.06 482.782,292.393 479.5,294.5C 478.833,294.333 478.167,294.167 477.5,294C 478.64,292.027 479.973,290.193 481.5,288.5C 481.376,287.893 481.043,287.56 480.5,287.5C 487.112,276.937 492.112,265.604 495.5,253.5 Z"/>
  </g>
  <g transform="matrix(0.497599, 0.000382, 0, 0.492156, -7.359332, -3.165463)" style="">
    <path style="opacity:1" fill="#1b4777" d="M 540.5,287.5 C 540.322,290.216 539.822,292.883 539,295.5C 537.989,296.337 536.822,296.67 535.5,296.5C 536.917,293.331 538.583,290.331 540.5,287.5 Z"/>
  </g>
  <g transform="matrix(0.497599, 0.000382, 0, 0.492156, -7.359332, -3.165463)" style="">
    <path style="opacity:1" fill="#2774c9" d="M 507.5,291.5 C 512.214,291.173 516.88,291.507 521.5,292.5C 514.314,301.853 505.981,310.02 496.5,317C 486.67,322.217 476.17,325.05 465,325.5C 463.101,325.102 461.601,324.102 460.5,322.5C 470.018,314.905 479.352,307.071 488.5,299C 494.485,295.33 500.819,292.83 507.5,291.5 Z"/>
  </g>
  <g transform="matrix(0.497599, 0.000382, 0, 0.492156, -7.359332, -3.165463)" style="">
    <path style="opacity:1" fill="#0f1a26" d="M 582.5,300.5 C 570.086,311.544 557.086,321.878 543.5,331.5C 543.062,331.565 542.728,331.399 542.5,331C 542.955,328.688 543.955,326.688 545.5,325C 545.167,324.667 544.833,324.333 544.5,324C 545.448,323.517 546.448,323.351 547.5,323.5C 547.137,321.089 548.137,319.589 550.5,319C 549.91,317.701 548.91,316.868 547.5,316.5C 545.489,317.519 543.489,318.519 541.5,319.5C 552.189,309.985 563.356,300.985 575,292.5C 575.498,289.518 575.665,286.518 575.5,283.5C 576.317,281.031 576.817,278.365 577,275.5C 576.505,281.99 578.005,287.823 581.5,293C 579.285,293.388 577.952,294.388 577.5,296C 580,296.671 581.667,298.171 582.5,300.5 Z"/>
  </g>
  <g transform="matrix(0.497599, 0.000382, 0, 0.492156, -7.359332, -3.165463)" style="">
    <path style="opacity:1" fill="#132740" d="M 435.5,308.5 C 435.877,301.743 435.377,295.076 434,288.5C 433.597,291.708 432.597,294.708 431,297.5C 427.989,298.015 426.156,299.682 425.5,302.5C 425.923,300.219 425.256,298.552 423.5,297.5C 423.953,296.542 424.619,295.708 425.5,295C 425.167,294.833 424.833,294.667 424.5,294.5C 421.452,297.524 417.785,299.191 413.5,299.5C 413.5,301.167 413.5,302.833 413.5,304.5C 412.448,304.351 411.448,304.517 410.5,305C 409.624,307.146 408.291,308.979 406.5,310.5C 404.898,309.45 404.065,310.117 404,312.5C 400.733,316.753 398.233,316.42 396.5,311.5C 397.653,310.313 397.653,309.313 396.5,308.5C 406.189,296.835 417.856,287.835 431.5,281.5C 433.029,281.529 434.196,282.196 435,283.5C 436.587,291.967 436.754,300.3 435.5,308.5 Z"/>
  </g>
  <g transform="matrix(0.497599, 0.000382, 0, 0.492156, -7.359332, -3.165463)" style="">
    <path style="opacity:1" fill="#2774c8" d="M 423.5,297.5 C 425.256,298.552 425.923,300.219 425.5,302.5C 425.666,306.514 425.499,310.514 425,314.5C 423.351,321.099 422.017,327.765 421,334.5C 414.97,344.203 407.803,353.036 399.5,361C 398.5,361.5 397.5,362 396.5,362.5C 393.972,358.266 392.972,353.599 393.5,348.5C 393.274,340.075 394.941,332.075 398.5,324.5C 405.73,314.598 414.064,305.598 423.5,297.5 Z"/>
  </g>
  <g transform="matrix(0.497599, 0.000382, 0, 0.492156, -7.359332, -3.165463)" style="">
    <path style="opacity:1" fill="#2672c5" d="M 590.5,297.5 C 599.314,314.782 604.814,333.115 607,352.5C 608.323,357.153 609.656,361.819 611,366.5C 619.988,386.971 628.821,407.471 637.5,428C 637.425,431.417 635.759,433.75 632.5,435C 622.833,435.333 613.167,435.667 603.5,436C 600.429,436.147 597.596,436.98 595,438.5C 594.289,440.367 594.789,441.867 596.5,443C 600.421,445.129 604.421,446.963 608.5,448.5C 610.905,450.642 612.238,453.309 612.5,456.5C 603.062,457.396 594.729,460.73 587.5,466.5C 592.096,466.722 596.762,466.888 601.5,467C 604.312,468.977 606.978,471.144 609.5,473.5C 606.759,475.953 603.925,478.286 601,480.5C 600.833,481.5 600.667,482.5 600.5,483.5C 602.895,488.733 605.062,494.066 607,499.5C 608.264,512.152 602.764,519.986 590.5,523C 551.555,525.682 515.889,516.349 483.5,495C 481.333,492.833 479.167,490.667 477,488.5C 476.833,488.833 476.667,489.167 476.5,489.5C 483.502,502.671 493.168,513.504 505.5,522C 512.982,525.999 520.315,530.166 527.5,534.5C 528.664,540.807 528.831,547.141 528,553.5C 525.581,567.271 523.748,581.104 522.5,595C 523.942,605.907 525.442,616.741 527,627.5C 493.749,606.121 459.915,585.621 425.5,566C 410.049,559.274 394.382,553.107 378.5,547.5C 396.802,537.675 406.969,522.341 409,501.5C 409.383,500.944 409.883,500.611 410.5,500.5C 415.603,496.895 419.436,492.229 422,486.5C 425.671,474.831 428.504,462.998 430.5,451C 431.167,450.333 431.833,450.333 432.5,451C 434.936,455.271 438.602,457.938 443.5,459C 450.871,460.874 457.204,459.207 462.5,454C 448.119,452.888 437.286,446.055 430,433.5C 422.145,421.288 421.645,408.954 428.5,396.5C 432.085,397.583 435.751,398.249 439.5,398.5C 437.37,405.147 437.203,411.814 439,418.5C 442.167,422.333 445.333,426.167 448.5,430C 449.793,430.49 451.127,430.657 452.5,430.5C 452.657,429.127 452.49,427.793 452,426.5C 449.3,424.766 447.3,422.432 446,419.5C 445.303,413.463 445.47,407.463 446.5,401.5C 469.854,406.571 487.687,398.904 500,378.5C 502.732,371.637 505.066,364.637 507,357.5C 519.625,349.358 531.792,340.692 543.5,331.5C 557.086,321.878 570.086,311.544 582.5,300.5C 584.753,298.466 587.42,297.466 590.5,297.5 Z"/>
  </g>
  <g transform="matrix(0.497599, 0.000382, 0, 0.492156, -7.359332, -3.165463)" style="">
    <path style="opacity:1" fill="#112033" d="M 423.5,297.5 C 414.064,305.598 405.73,314.598 398.5,324.5C 398.565,324.062 398.399,323.728 398,323.5C 396.092,326.215 394.759,329.215 394,332.5C 392.048,334.998 389.715,335.665 387,334.5C 386.458,331.202 386.958,328.035 388.5,325C 388.43,324.235 388.097,323.735 387.5,323.5C 389.734,318.03 392.734,313.03 396.5,308.5C 397.653,309.313 397.653,310.313 396.5,311.5C 398.233,316.42 400.733,316.753 404,312.5C 404.065,310.117 404.898,309.45 406.5,310.5C 408.291,308.979 409.624,307.146 410.5,305C 411.448,304.517 412.448,304.351 413.5,304.5C 413.5,302.833 413.5,301.167 413.5,299.5C 417.785,299.191 421.452,297.524 424.5,294.5C 424.833,294.667 425.167,294.833 425.5,295C 424.619,295.708 423.953,296.542 423.5,297.5 Z"/>
  </g>
  <g transform="matrix(0.497599, 0.000382, 0, 0.492156, -7.359332, -3.165463)" style="">
    <path style="opacity:1" fill="#112032" d="M 384.5,334.5 C 383.752,338.743 382.419,342.743 380.5,346.5C 373.701,351.157 368.868,357.49 366,365.5C 364.53,369.378 363.697,373.378 363.5,377.5C 362.707,381.339 362.04,385.339 361.5,389.5C 361.818,390.647 362.484,391.481 363.5,392C 361.682,394.84 360.015,397.34 358.5,399.5C 348.246,372.667 354.913,351.167 378.5,335C 380.686,334.939 382.686,334.772 384.5,334.5 Z"/>
  </g>
  <g transform="matrix(0.497599, 0.000382, 0, 0.492156, -7.359332, -3.165463)" style="">
    <path style="opacity:1" fill="#2774c7" d="M 444.5,338.5 C 453.608,338.057 462.608,338.557 471.5,340C 464.692,347.905 456.358,353.571 446.5,357C 435.106,360.576 423.606,363.743 412,366.5C 411.5,366.167 411,365.833 410.5,365.5C 421.301,355.685 432.634,346.685 444.5,338.5 Z"/>
  </g>
  <g transform="matrix(0.497599, 0.000382, 0, 0.492156, -7.359332, -3.165463)" style="">
    <path style="opacity:1" fill="#101f32" d="M 543.5,331.5 C 531.792,340.692 519.625,349.358 507,357.5C 505.066,364.637 502.732,371.637 500,378.5C 487.687,398.904 469.854,406.571 446.5,401.5C 445.47,407.463 445.303,413.463 446,419.5C 447.3,422.432 449.3,424.766 452,426.5C 452.49,427.793 452.657,429.127 452.5,430.5C 451.127,430.657 449.793,430.49 448.5,430C 445.333,426.167 442.167,422.333 439,418.5C 437.203,411.814 437.37,405.147 439.5,398.5C 435.751,398.249 432.085,397.583 428.5,396.5C 429.263,395.732 430.263,395.232 431.5,395C 430.185,393.605 430.519,392.605 432.5,392C 429.502,389.192 430.169,387.859 434.5,388C 433.944,387.617 433.611,387.117 433.5,386.5C 440.375,389.345 447.541,391.345 455,392.5C 468.561,392.556 478.894,386.889 486,375.5C 489.873,366.87 493.54,358.203 497,349.5C 512.322,340.099 527.156,330.099 541.5,319.5C 543.489,318.519 545.489,317.519 547.5,316.5C 548.91,316.868 549.91,317.701 550.5,319C 548.137,319.589 547.137,321.089 547.5,323.5C 546.448,323.351 545.448,323.517 544.5,324C 544.833,324.333 545.167,324.667 545.5,325C 543.955,326.688 542.955,328.688 542.5,331C 542.728,331.399 543.062,331.565 543.5,331.5 Z"/>
  </g>
  <g transform="matrix(0.497599, 0.000382, 0, 0.492156, -7.359332, -3.165463)" style="">
    <path style="opacity:1" fill="#2774c9" d="M 380.5,346.5 C 380.666,356.506 380.5,366.506 380,376.5C 376.819,383.511 372.319,389.511 366.5,394.5C 365.034,393.653 364.2,392.32 364,390.5C 363.501,386.179 363.334,381.846 363.5,377.5C 363.697,373.378 364.53,369.378 366,365.5C 368.868,357.49 373.701,351.157 380.5,346.5 Z"/>
  </g>
  <g transform="matrix(0.497599, 0.000382, 0, 0.492156, -7.359332, -3.165463)" style="">
    <path style="opacity:1" fill="#0f1b28" d="M 577.5,377.5 C 577.141,382.749 576.141,387.749 574.5,392.5C 570.468,391.306 567.468,388.806 565.5,385C 562.118,384.824 558.785,384.324 555.5,383.5C 560.963,378.27 566.963,373.77 573.5,370C 574.833,368.667 574.833,367.333 573.5,366C 569.406,365.233 565.406,365.566 561.5,367C 553.212,370.81 545.212,375.144 537.5,380C 536.5,380.667 535.5,380.667 534.5,380C 543.755,368.111 555.755,360.111 570.5,356C 575.519,355.665 580.519,355.165 585.5,354.5C 589.024,355.774 592.691,356.774 596.5,357.5C 594.733,360.037 593.233,362.703 592,365.5C 586.685,368.987 581.852,372.987 577.5,377.5 Z"/>
  </g>
  <g transform="matrix(0.497599, 0.000382, 0, 0.492156, -7.359332, -3.165463)" style="">
    <path style="opacity:1" fill="#1b487a" d="M 464.5,361.5 C 465.598,362.397 465.598,363.23 464.5,364C 460.075,367.903 455.075,369.403 449.5,368.5C 454.377,365.981 459.377,363.648 464.5,361.5 Z"/>
  </g>
  <g transform="matrix(0.497599, 0.000382, 0, 0.492156, -7.359332, -3.165463)" style="">
    <path style="opacity:1" fill="#1d477a" d="M 577.5,377.5 C 577.666,383.176 577.499,388.843 577,394.5C 576.005,393.934 575.172,393.267 574.5,392.5C 576.141,387.749 577.141,382.749 577.5,377.5 Z"/>
  </g>
  <g transform="matrix(0.497599, 0.000382, 0, 0.492156, -7.359332, -3.165463)" style="">
    <path style="opacity:1" fill="#152a43" d="M 363.5,377.5 C 363.334,381.846 363.501,386.179 364,390.5C 364.2,392.32 365.034,393.653 366.5,394.5C 364.306,398.421 362.306,402.421 360.5,406.5C 360.606,403.921 359.939,401.588 358.5,399.5C 360.015,397.34 361.682,394.84 363.5,392C 362.484,391.481 361.818,390.647 361.5,389.5C 362.04,385.339 362.707,381.339 363.5,377.5 Z"/>
  </g>
  <g transform="matrix(0.497599, 0.000382, 0, 0.492156, -7.359332, -3.165463)" style="">
    <path style="opacity:1" fill="#2673c7" d="M 407.5,418.5 C 408.496,418.414 409.329,418.748 410,419.5C 420.485,442.14 419.818,464.474 408,486.5C 403.963,490.369 400.13,494.369 396.5,498.5C 390.659,510.375 381.659,518.042 369.5,521.5C 374.671,513.985 379.004,505.985 382.5,497.5C 367.453,495.651 354.619,489.318 344,478.5C 340.421,468.688 340.754,459.021 345,449.5C 348.118,444.714 351.618,440.214 355.5,436C 368.118,432.209 380.784,428.542 393.5,425C 398.313,423.093 402.98,420.926 407.5,418.5 Z"/>
  </g>
  <g transform="matrix(0.497599, 0.000382, 0, 0.492156, -7.359332, -3.165463)" style="">
    <path style="opacity:1" fill="#101d2e" d="M 433.5,386.5 C 433.611,387.117 433.944,387.617 434.5,388C 430.169,387.859 429.502,389.192 432.5,392C 430.519,392.605 430.185,393.605 431.5,395C 430.263,395.232 429.263,395.732 428.5,396.5C 421.645,408.954 422.145,421.288 430,433.5C 437.286,446.055 448.119,452.888 462.5,454C 457.204,459.207 450.871,460.874 443.5,459C 438.602,457.938 434.936,455.271 432.5,451C 431.833,450.333 431.167,450.333 430.5,451C 428.504,462.998 425.671,474.831 422,486.5C 419.436,492.229 415.603,496.895 410.5,500.5C 409.207,499.355 408.041,499.689 407,501.5C 406.503,508.503 405.837,508.837 405,502.5C 404.586,502.957 404.086,503.291 403.5,503.5C 402.833,502.5 402.167,501.5 401.5,500.5C 401.264,501.247 400.93,502.08 400.5,503C 399.5,503.667 398.5,503.667 397.5,503C 397.833,502.667 398.167,502.333 398.5,502C 397.915,500.698 397.249,499.531 396.5,498.5C 400.13,494.369 403.963,490.369 408,486.5C 419.818,464.474 420.485,442.14 410,419.5C 409.329,418.748 408.496,418.414 407.5,418.5C 407.918,417.778 408.584,417.278 409.5,417C 407.25,416.389 405.583,415.056 404.5,413C 405.167,412.667 405.833,412.333 406.5,412C 406.167,410.333 405.833,408.667 405.5,407C 406.672,406.581 407.672,405.915 408.5,405C 408.272,404.601 407.938,404.435 407.5,404.5C 409.655,400.861 411.822,397.194 414,393.5C 418.91,386.452 425.41,384.118 433.5,386.5 Z"/>
  </g>
  <g transform="matrix(0.497599, 0.000382, 0, 0.492156, -7.359332, -3.165463)" style="">
    <path style="opacity:1" fill="#0c0e13" d="M 714.5,458.5 C 708.536,475.43 701.203,491.763 692.5,507.5C 691.957,507.44 691.624,507.107 691.5,506.5C 700.011,490.169 707.678,474.169 714.5,458.5 Z"/>
  </g>
  <g transform="matrix(0.497599, 0.000382, 0, 0.492156, -7.359332, -3.165463)" style="">
    <path style="opacity: 1; fill: rgb(14, 27, 40);" d="M 551.5,548.5 C 582.174,548.167 612.841,548.5 643.5,549.5C 628.347,575.801 613.18,602.135 598,628.5C 596.127,630.709 593.96,632.542 591.5,634C 577.903,635.612 564.236,635.945 550.5,635C 548.391,633.859 546.558,632.359 545,630.5C 540.721,602.62 542.888,575.287 551.5,548.5 Z"/>
  </g>
  <g transform="matrix(0.497599, 0.000382, 0, 0.492156, -7.359332, -3.165463)" style="">
    <path style="opacity: 1; fill: rgb(14, 27, 40);" d="M 454.5,647.5 C 470.411,647.175 486.244,647.509 502,648.5C 502.667,683.167 502.667,717.833 502,752.5C 479.333,719.167 456.667,685.833 434,652.5C 433.51,651.207 433.343,649.873 433.5,648.5C 440.687,648.825 447.687,648.491 454.5,647.5 Z"/>
  </g>
  <g transform="matrix(0.497599, 0.000382, 0, 0.492156, -7.359332, -3.165463)" style="">
    <path style="opacity: 1; fill: rgb(14, 27, 40);" d="M 516.5,647.5 C 538.891,647.043 561.224,647.71 583.5,649.5C 562.619,684.913 540.453,719.58 517,753.5C 515.857,718.141 515.69,682.808 516.5,647.5 Z"/>
  </g>
</svg>