<?xml version="1.0" encoding="utf-8"?>
<svg xmlns="http://www.w3.org/2000/svg" viewBox="0 0 500 500" style="shape-rendering: geometricprecision;">
  <g transform="matrix(0.489859, 0, 0, 0.49254, -1.466119, -3.096985)" style=""/>
  <g transform="matrix(0.489859, 0, 0, 0.49254, -1.466119, -3.096985)" style=""/>
  <g transform="matrix(0.489859, 0, 0, 0.49254, -1.466119, -3.096985)" style=""/>
  <g transform="matrix(0.489859, 0, 0, 0.49254, -1.466119, -3.096985)" style=""/>
  <g transform="matrix(0.489859, 0, 0, 0.49254, -1.466119, -3.096985)" style=""/>
  <g transform="matrix(0.489859, 0, 0, 0.49254, -1.466119, -3.096985)" style=""/>
  <g transform="matrix(0.489859, 0, 0, 0.49254, -1.466119, -3.096985)" style=""/>
  <g transform="matrix(0.489859, 0, 0, 0.49254, -1.466119, -3.096985)" style=""/>
  <g transform="matrix(0.489859, 0, 0, 0.49254, -1.466119, -3.096985)" style=""/>
  <g transform="matrix(0.489859, 0, 0, 0.49254, -1.466119, -3.096985)" style=""/>
  <g transform="matrix(0.489859, 0, 0, 0.49254, -1.466119, -3.096985)" style=""/>
  <g transform="matrix(0.489859, 0, 0, 0.49254, -1.466119, -3.096985)" style=""/>
  <g transform="matrix(0.730717, 0, 0, 0.730717, -134.557571, -142.06601)" style="">
    <path style="opacity: 1; fill: rgb(39, 43, 65);" d="M -0.5,-0.5 C 340.833,-0.5 682.167,-0.5 1023.5,-0.5C 1023.5,340.833 1023.5,682.167 1023.5,1023.5C 682.167,1023.5 340.833,1023.5 -0.5,1023.5C -0.5,682.167 -0.5,340.833 -0.5,-0.5 Z"/>
  </g>
  <g transform="matrix(0.730717, 0, 0, 0.730717, -134.557571, -142.06601)" style="">
    <path style="opacity:1" fill="#f9f6ec" d="M 636.5,322.5 C 642.078,352.034 638.411,380.367 625.5,407.5C 594.592,461.273 556.926,509.94 512.5,553.5C 506.217,548.72 500.384,543.387 495,537.5C 463.601,502.778 435.268,465.778 410,426.5C 398.222,408.296 390.389,388.629 386.5,367.5C 383.053,337.73 389.053,310.063 404.5,284.5C 440.446,233.901 488.779,215.734 549.5,230C 594.894,245.557 623.894,276.39 636.5,322.5 Z"/>
  </g>
  <g transform="matrix(0.730717, 0, 0, 0.730717, -134.557571, -142.06601)" style="">
    <path style="opacity: 1; fill: rgb(39, 43, 65);" d="M 575.5,398.5 C 564.187,416.008 548.187,426.842 527.5,431C 490.672,436.5 462.838,423.333 444,391.5C 429.271,361.451 431.771,333.118 451.5,306.5C 454.946,303.574 458.612,300.074 462.5,296C 493.27,272.968 524.937,271.635 557.5,292C 586.616,316.617 595.116,347.117 583,383.5C 580.473,388.553 577.973,393.553 575.5,398.5 Z"/>
  </g>
  <g transform="matrix(0.730717, 0, 0, 0.730717, -134.557571, -142.06601)" style="">
    <path style="opacity:1" fill="#111314" d="M 575.5,398.5 C 577.973,393.553 580.473,388.553 583,383.5C 595.116,347.117 586.616,316.617 557.5,292C 524.937,271.635 493.27,272.968 462.5,296C 458.612,300.074 454.946,303.574 451.5,306.5C 471.371,281.926 497.037,272.426 528.5,278C 566.736,288.593 587.402,313.76 590.5,353.5C 590.054,370.17 585.054,385.17 575.5,398.5 Z"/>
  </g>
  <g transform="matrix(0.730717, 0, 0, 0.730717, -134.557571, -142.06601)" style="">
    <path style="opacity:1" fill="#080a0c" d="M 404.5,284.5 C 389.053,310.063 383.053,337.73 386.5,367.5C 381.25,338.61 387.083,310.61 404,283.5C 404.399,283.728 404.565,284.062 404.5,284.5 Z"/>
  </g>
  <g transform="matrix(0.730717, 0, 0, 0.730717, -134.557571, -142.06601)" style="">
    <path style="opacity:1" fill="#13497f" d="M 521.5,310.5 C 535.144,313.638 545.977,320.971 554,332.5C 556.202,336.606 557.702,340.94 558.5,345.5C 556.167,345.5 553.833,345.5 551.5,345.5C 546.952,330.284 536.952,320.951 521.5,317.5C 521.5,315.167 521.5,312.833 521.5,310.5 Z"/>
  </g>
  <g transform="matrix(0.730717, 0, 0, 0.730717, -134.557571, -142.06601)" style="">
    <path style="opacity:1" fill="#134980" d="M 499.5,309.5 C 500.833,309.5 502.167,309.5 503.5,309.5C 503.768,312.119 503.435,314.619 502.5,317C 492.348,318.994 484.182,324.161 478,332.5C 475.063,336.374 473.229,340.707 472.5,345.5C 470.167,345.5 467.833,345.5 465.5,345.5C 468.74,333.734 475.406,324.234 485.5,317C 490.119,314.166 494.786,311.666 499.5,309.5 Z"/>
  </g>
  <g transform="matrix(0.730717, 0, 0, 0.730717, -134.557571, -142.06601)" style="">
    <path style="opacity:1" fill="#080a0c" d="M 625.5,407.5 C 638.411,380.367 642.078,352.034 636.5,322.5C 636.435,322.062 636.601,321.728 637,321.5C 642.337,344.735 641.337,367.735 634,390.5C 631.309,397.207 628.642,403.873 626,410.5C 625.517,409.552 625.351,408.552 625.5,407.5 Z"/>
  </g>
  <g transform="matrix(0.730717, 0, 0, 0.730717, -134.557571, -142.06601)" style="">
    <path style="opacity:1" fill="#0f447b" d="M 511.5,288.5 C 515.573,302.127 519.073,316.127 522,330.5C 523.266,334.644 525.099,338.477 527.5,342C 544.492,346.384 561.492,350.551 578.5,354.5C 565.771,357.145 553.105,359.979 540.5,363C 535.319,364.545 530.319,366.545 525.5,369C 519.485,385.73 514.985,402.897 512,420.5C 508.861,403.109 504.694,385.943 499.5,369C 495.783,367.82 492.116,366.487 488.5,365C 473.186,361.395 457.853,357.895 442.5,354.5C 456.351,351.134 470.351,348.301 484.5,346C 488.962,343.77 493.628,342.103 498.5,341C 501.048,334.649 503.214,328.149 505,321.5C 507.167,310.494 509.334,299.494 511.5,288.5 Z"/>
  </g>
  <g transform="matrix(0.730717, 0, 0, 0.730717, -134.557571, -142.06601)" style="">
    <path style="opacity:1" fill="#1b6fa6" d="M 511.5,322.5 C 514.604,330.157 516.937,338.157 518.5,346.5C 528.026,349.424 537.692,351.924 547.5,354C 538.041,357.193 528.375,359.693 518.5,361.5C 516.943,370.394 514.777,379.061 512,387.5C 509.777,378.98 507.611,370.48 505.5,362C 495.888,360.405 486.554,357.905 477.5,354.5C 486.817,352.004 496.151,349.504 505.5,347C 507.46,338.824 509.46,330.658 511.5,322.5 Z"/>
  </g>
  <g transform="matrix(0.730717, 0, 0, 0.730717, -134.557571, -142.06601)" style="">
    <path style="opacity:1" fill="#13477d" d="M 552.5,363.5 C 554.5,363.5 556.5,363.5 558.5,363.5C 553.203,383.169 540.536,395.169 520.5,399.5C 520.292,397.08 520.626,394.747 521.5,392.5C 529.647,390.178 536.814,386.178 543,380.5C 546.719,375.055 549.885,369.388 552.5,363.5 Z"/>
  </g>
  <g transform="matrix(0.730717, 0, 0, 0.730717, -134.557571, -142.06601)" style="">
    <path style="opacity:1" fill="#13477d" d="M 465.5,363.5 C 468.119,363.232 470.619,363.565 473,364.5C 477.744,379.247 487.577,388.414 502.5,392C 503.435,394.381 503.768,396.881 503.5,399.5C 488.809,396.558 477.643,388.558 470,375.5C 467.666,371.828 466.166,367.828 465.5,363.5 Z"/>
  </g>
  <g transform="matrix(0.730717, 0, 0, 0.730717, -134.557571, -142.06601)" style="">
    <path style="opacity:1" fill="#0d0e10" d="M 372.5,549.5 C 343.705,601.842 343.205,654.509 371,707.5C 379.211,719.923 388.377,731.59 398.5,742.5C 394.933,740.443 391.766,737.777 389,734.5C 347.817,685.071 338.484,630.071 361,569.5C 364.412,562.342 368.078,555.342 372,548.5C 372.399,548.728 372.565,549.062 372.5,549.5 Z"/>
  </g>
  <g transform="matrix(0.730717, 0, 0, 0.730717, -134.557571, -142.06601)" style="">
    <path style="opacity:1" fill="#090a0c" d="M 652.5,551.5 C 670.478,581.334 677.312,613.667 673,648.5C 672.505,646.527 672.338,644.527 672.5,642.5C 674.766,610.157 668.099,579.824 652.5,551.5 Z"/>
  </g>
  <g transform="matrix(0.730717, 0, 0, 0.730717, -134.557571, -142.06601)" style="">
    <path style="opacity:1" fill="#f7f4eb" d="M 396.5,546.5 C 379.62,568.125 370.62,592.792 369.5,620.5C 414.167,620.5 458.833,620.5 503.5,620.5C 503.5,605.167 503.5,589.833 503.5,574.5C 504.5,574.5 505.5,574.5 506.5,574.5C 509.833,575.833 513.167,575.833 516.5,574.5C 517.833,574.5 519.167,574.5 520.5,574.5C 520.5,589.833 520.5,605.167 520.5,620.5C 565.168,620.667 609.835,620.5 654.5,620C 653.565,617.619 653.232,615.119 653.5,612.5C 646.8,564.643 622.466,528.809 580.5,505C 585.049,501.747 588.549,497.58 591,492.5C 616.593,506.928 637.093,526.595 652.5,551.5C 668.099,579.824 674.766,610.157 672.5,642.5C 664.732,703.396 633.065,746.729 577.5,772.5C 545.433,784.597 512.433,787.93 478.5,782.5C 448.292,776.063 421.625,762.729 398.5,742.5C 388.377,731.59 379.211,719.923 371,707.5C 343.205,654.509 343.705,601.842 372.5,549.5C 387.952,525.549 408.119,506.549 433,492.5C 435.055,497.888 438.555,502.054 443.5,505C 424.549,515.118 408.882,528.951 396.5,546.5 Z"/>
  </g>
  <g transform="matrix(0.730717, 0, 0, 0.730717, -134.557571, -142.06601)" style="">
    <path style="opacity:1" fill="#08090a" d="M 653.5,612.5 C 653.232,615.119 653.565,617.619 654.5,620C 609.835,620.5 565.168,620.667 520.5,620.5C 520.5,605.167 520.5,589.833 520.5,574.5C 519.167,574.5 517.833,574.5 516.5,574.5C 515.492,573.091 517.325,573.091 522,574.5C 522.5,589.496 522.667,604.496 522.5,619.5C 565.833,619.5 609.167,619.5 652.5,619.5C 652.198,616.941 652.532,614.607 653.5,612.5 Z"/>
  </g>
  <g transform="matrix(0.730717, 0, 0, 0.730717, -134.557571, -142.06601)" style="">
    <path style="opacity:1" fill="#070708" d="M 396.5,546.5 C 381.213,568.359 372.88,592.692 371.5,619.5C 415.167,619.5 458.833,619.5 502.5,619.5C 502.5,604.167 502.5,588.833 502.5,573.5C 505.187,573.336 507.854,573.503 510.5,574C 509.207,574.49 507.873,574.657 506.5,574.5C 505.5,574.5 504.5,574.5 503.5,574.5C 503.5,589.833 503.5,605.167 503.5,620.5C 458.833,620.5 414.167,620.5 369.5,620.5C 370.62,592.792 379.62,568.125 396.5,546.5 Z"/>
  </g>
  <g transform="matrix(0.730717, 0, 0, 0.730717, -134.557571, -142.06601)" style="">
    <path style="opacity:1" fill="#9a9c94" d="M 520.5,639.5 C 564.997,638.501 609.664,638.168 654.5,638.5C 654.768,640.099 654.434,641.432 653.5,642.5C 653.5,641.5 653.5,640.5 653.5,639.5C 609.167,639.5 564.833,639.5 520.5,639.5 Z"/>
  </g>
  <g transform="matrix(0.730717, 0, 0, 0.730717, -134.557571, -142.06601)" style="">
    <path style="opacity:1" fill="#040506" d="M 456.5,756.5 C 456.56,755.957 456.893,755.624 457.5,755.5C 471.931,760.819 486.764,764.152 502,765.5C 502.5,723.835 502.667,682.168 502.5,640.5C 458.833,640.5 415.167,640.5 371.5,640.5C 371.846,647.588 372.846,654.588 374.5,661.5C 374.457,662.416 374.124,663.083 373.5,663.5C 371.843,655.889 370.509,648.223 369.5,640.5C 414.162,639.5 458.828,639.167 503.5,639.5C 503.5,681.833 503.5,724.167 503.5,766.5C 487.203,765.974 471.536,762.641 456.5,756.5 Z"/>
  </g>
  <g transform="matrix(0.730717, 0, 0, 0.730717, -134.557571, -142.06601)" style="">
    <path style="opacity: 1; fill: rgb(39, 43, 65);" d="M 456.5,756.5 C 413.692,739.025 386.025,708.025 373.5,663.5C 374.124,663.083 374.457,662.416 374.5,661.5C 372.846,654.588 371.846,647.588 371.5,640.5C 415.167,640.5 458.833,640.5 502.5,640.5C 502.667,682.168 502.5,723.835 502,765.5C 486.764,764.152 471.931,760.819 457.5,755.5C 456.893,755.624 456.56,755.957 456.5,756.5 Z"/>
  </g>
  <g transform="matrix(0.730717, 0, 0, 0.730717, -134.557571, -142.06601)" style="">
    <path style="opacity: 1; fill: rgb(39, 43, 65);" d="M 632.5,701.5 C 611.837,734.117 582.504,754.784 544.5,763.5C 543.903,762.861 543.07,762.528 542,762.5C 535.568,763.86 529.068,764.527 522.5,764.5C 522.5,723.167 522.5,681.833 522.5,640.5C 565.833,640.5 609.167,640.5 652.5,640.5C 650.23,662.311 643.563,682.644 632.5,701.5 Z"/>
  </g>
  <g transform="matrix(0.730717, 0, 0, 0.730717, -134.557571, -142.06601)" style="">
    <path style="opacity:1" fill="#0b0d0f" d="M 520.5,639.5 C 564.833,639.5 609.167,639.5 653.5,639.5C 653.5,640.5 653.5,641.5 653.5,642.5C 651.824,664.204 644.824,683.87 632.5,701.5C 643.563,682.644 650.23,662.311 652.5,640.5C 609.167,640.5 565.833,640.5 522.5,640.5C 522.5,681.833 522.5,723.167 522.5,764.5C 529.068,764.527 535.568,763.86 542,762.5C 543.07,762.528 543.903,762.861 544.5,763.5C 536.576,765.061 528.576,766.061 520.5,766.5C 520.5,724.167 520.5,681.833 520.5,639.5 Z"/>
  </g>
  <g transform="matrix(0.730717, 0, 0, 0.730717, -134.557571, -142.06601)" style="">
    <path style="opacity:1" fill="#111314" d="M 577.5,772.5 C 577.938,772.435 578.272,772.601 578.5,773C 545.997,786.633 512.663,789.799 478.5,782.5C 512.433,787.93 545.433,784.597 577.5,772.5 Z"/>
  </g>
</svg>