<?xml version="1.0" encoding="utf-8"?>
<svg xmlns="http://www.w3.org/2000/svg" viewBox="0 0 500 500" style="shape-rendering: geometricprecision;">
  <g transform="matrix(0.497028, 0, 0, 0.495969, -1.845749, -5.046792)" style="">
    <path style="opacity: 1; fill: rgb(39, 43, 65);" d="M -0.5,-0.5 C 340.833,-0.5 682.167,-0.5 1023.5,-0.5C 1023.5,340.833 1023.5,682.167 1023.5,1023.5C 682.167,1023.5 340.833,1023.5 -0.5,1023.5C -0.5,682.167 -0.5,340.833 -0.5,-0.5 Z"/>
  </g>
  <g transform="matrix(0.806371, 0, 0, 0.768887, -146.917389, -47.691246)" style="">
    <path style="opacity:1" fill="#2b74c7" d="M 676.5,258.5 C 679.139,276.17 679.139,293.837 676.5,311.5C 673.824,324.374 669.99,337.041 665,349.5C 641,396.452 615,442.119 587,486.5C 564.333,520.5 541.667,554.5 519,588.5C 510.667,597.833 502.333,597.833 494,588.5C 444.918,519.367 399.585,447.7 358,373.5C 325.63,318.189 324.297,262.189 354,205.5C 394.998,144.422 452.498,116.589 526.5,122C 593.893,131.413 641.06,167.247 668,229.5C 671.325,239.153 674.158,248.82 676.5,258.5 Z"/>
  </g>
  <g transform="matrix(0.806371, 0, 0, 0.768887, -146.917389, -47.691246)" style="">
    <path style="opacity: 1; fill: rgb(39, 43, 65);" d="M 495.5,140.5 C 538.4,139.299 576.4,152.133 609.5,179C 654.178,224.046 667.012,276.879 648,337.5C 607.788,414.96 562.788,489.293 513,560.5C 508.99,566.644 504.656,566.977 500,561.5C 451.036,491.146 406.036,418.146 365,342.5C 343.833,287.693 351.833,237.693 389,192.5C 417.753,161.374 453.253,144.04 495.5,140.5 Z"/>
  </g>
  <g transform="matrix(0.806371, 0, 0, 0.768887, -146.917389, -47.691246)" style="">
    <path style="opacity:1" fill="#2b74c7" d="M 480.5,167.5 C 490.58,167.077 500.58,167.577 510.5,169C 501.682,175.133 492.348,180.466 482.5,185C 470.195,193.31 460.695,204.143 454,217.5C 454.001,205.824 449.501,203.657 440.5,211C 428.747,219.332 421.081,230.498 417.5,244.5C 416.5,242.833 415.167,241.5 413.5,240.5C 404.807,246.193 399.307,254.193 397,264.5C 396.107,274.416 396.607,284.249 398.5,294C 398.589,296.723 397.923,299.223 396.5,301.5C 380.683,258.603 390.016,222.103 424.5,192C 441.16,179.168 459.827,171.002 480.5,167.5 Z"/>
  </g>
  <g transform="matrix(0.806371, 0, 0, 0.768887, -146.917389, -47.691246)" style="">
    <path style="opacity:1" fill="#2b75c7" d="M 522.5,172.5 C 535.343,171.282 546.843,174.615 557,182.5C 570.279,179.119 575.946,184.119 574,197.5C 572.705,203.113 569.705,207.447 565,210.5C 562.03,204.74 558.196,199.574 553.5,195C 550.431,193.09 547.431,193.09 544.5,195C 549.431,199.538 551.931,205.038 552,211.5C 536.156,226.005 518.656,238.172 499.5,248C 496.151,255.703 492.985,263.536 490,271.5C 485.26,277.917 478.927,281.25 471,281.5C 464.988,280.747 459.155,279.247 453.5,277C 448.331,275.705 443.831,276.872 440,280.5C 437.707,284.252 435.54,288.086 433.5,292C 425.804,297.176 417.471,300.009 408.5,300.5C 413,293.5 417.5,286.5 422,279.5C 426.513,274.659 432.013,271.492 438.5,270C 452.269,269.581 465.269,266.247 477.5,260C 483.664,255.169 488.331,249.169 491.5,242C 503.624,237.208 514.124,230.042 523,220.5C 525.03,217.774 526.53,214.774 527.5,211.5C 527.124,209.617 526.124,208.117 524.5,207C 515.446,203.671 506.446,203.837 497.5,207.5C 500.144,191.915 508.477,180.249 522.5,172.5 Z"/>
  </g>
  <g transform="matrix(0.806371, 0, 0, 0.768887, -146.917389, -47.691246)" style="">
    <path style="opacity:1" fill="#2c75c8" d="M 493.5,187.5 C 489.989,201.289 482.655,213.122 471.5,223C 466.923,226.54 462.09,229.706 457,232.5C 462.739,212.263 474.906,197.263 493.5,187.5 Z"/>
  </g>
  <g transform="matrix(0.806371, 0, 0, 0.768887, -146.917389, -47.691246)" style="">
    <path style="opacity:1" fill="#2c77cb" d="M 504.5,212.5 C 508.884,212.174 513.217,212.508 517.5,213.5C 509.745,224.064 499.412,230.897 486.5,234C 480.881,235.299 475.214,235.632 469.5,235C 478.999,223.929 490.666,216.429 504.5,212.5 Z"/>
  </g>
  <g transform="matrix(0.806371, 0, 0, 0.768887, -146.917389, -47.691246)" style="">
    <path style="opacity:1" fill="#2b73c5" d="M 557.5,216.5 C 560.394,217.882 562.894,219.882 565,222.5C 571.053,237.716 575.387,253.383 578,269.5C 583.37,281.738 588.87,293.905 594.5,306C 594.402,308.873 593.068,310.873 590.5,312C 583.833,312.333 577.167,312.667 570.5,313C 569.062,313.219 567.729,313.719 566.5,314.5C 569.844,316.932 573.344,319.266 577,321.5C 577.92,324.308 577.087,326.475 574.5,328C 571.211,328.882 567.877,329.548 564.5,330C 562.077,331.571 560.744,333.737 560.5,336.5C 563.156,335.842 565.822,335.175 568.5,334.5C 570.985,334.239 572.652,335.239 573.5,337.5C 572.01,341.639 570.677,345.806 569.5,350C 570.471,355.146 570.637,360.313 570,365.5C 567.749,370.369 563.915,372.869 558.5,373C 538.321,373.831 518.988,370.164 500.5,362C 494.938,359.106 489.938,355.439 485.5,351C 484.668,350.312 484.002,350.479 483.5,351.5C 487.525,361.409 494.192,368.909 503.5,374C 508.621,376.644 513.788,379.144 519,381.5C 519.869,383.581 520.369,385.747 520.5,388C 517.917,399.414 515.917,410.914 514.5,422.5C 515.382,431.341 516.882,440.008 519,448.5C 485.912,426.535 451.079,407.535 414.5,391.5C 425.116,383.271 431.949,372.605 435,359.5C 439.358,355.804 443.025,351.47 446,346.5C 447.836,340.489 449.669,334.489 451.5,328.5C 457.42,332.187 463.42,332.353 469.5,329C 471.155,327.556 471.822,325.722 471.5,323.5C 458.66,324.514 450.16,318.847 446,306.5C 443.553,299.371 444.053,292.538 447.5,286C 450.192,285.57 452.859,285.737 455.5,286.5C 454.035,290.389 453.535,294.389 454,298.5C 455.413,301.661 457.08,304.661 459,307.5C 460.011,308.337 461.178,308.67 462.5,308.5C 462.388,304.604 461.388,300.937 459.5,297.5C 460.095,295.143 461.095,292.977 462.5,291C 476.751,292.964 488.251,288.131 497,276.5C 500.448,269.35 503.281,262.017 505.5,254.5C 522.201,245.487 537.867,234.987 552.5,223C 554.79,221.223 556.457,219.056 557.5,216.5 Z"/>
  </g>
  <g transform="matrix(0.806371, 0, 0, 0.768887, -146.917389, -47.691246)" style="">
    <path style="opacity:1" fill="#2c76ca" d="M 444.5,216.5 C 446.522,235.222 440.022,250.556 425,262.5C 423.458,249.127 426.792,237.127 435,226.5C 438.371,223.297 441.538,219.964 444.5,216.5 Z"/>
  </g>
  <g transform="matrix(0.806371, 0, 0, 0.768887, -146.917389, -47.691246)" style="">
    <path style="opacity:1" fill="#2b75c8" d="M 461.5,243.5 C 468.2,243.17 474.866,243.503 481.5,244.5C 475.343,252.418 467.343,257.585 457.5,260C 451.108,260.896 444.775,261.563 438.5,262C 443.734,252.579 451.4,246.413 461.5,243.5 Z"/>
  </g>
  <g transform="matrix(0.806371, 0, 0, 0.768887, -146.917389, -47.691246)" style="">
    <path style="opacity:1" fill="#111923" d="M 554.5,254.5 C 557.518,254.335 560.518,254.502 563.5,255C 566.654,257.775 567.154,260.942 565,264.5C 562.572,267.598 559.572,269.931 556,271.5C 555.373,275.552 553.873,279.218 551.5,282.5C 547.5,280.167 543.5,277.833 539.5,275.5C 543.629,273.683 547.129,271.016 550,267.5C 550.667,266.833 550.667,266.167 550,265.5C 541.205,268.433 532.538,271.766 524,275.5C 522.054,275.237 521.388,274.237 522,272.5C 531.505,264 542.338,258 554.5,254.5 Z"/>
  </g>
  <g transform="matrix(0.806371, 0, 0, 0.768887, -146.917389, -47.691246)" style="">
    <path style="opacity:1" fill="#2c76c9" d="M 411.5,250.5 C 418.115,264.224 416.282,276.89 406,288.5C 401.189,274.742 403.022,262.076 411.5,250.5 Z"/>
  </g>
  <g transform="matrix(0.806371, 0, 0, 0.768887, -146.917389, -47.691246)" style="">
    <path style="opacity:1" fill="#2b74c6" d="M 433.5,300.5 C 442.65,316.61 442.816,332.944 434,349.5C 431.079,353.092 427.579,355.925 423.5,358C 419.807,366.384 413.474,370.717 404.5,371C 406.764,367.139 408.764,363.139 410.5,359C 403.509,355.683 397.343,351.183 392,345.5C 385.311,331.672 388.478,320.505 401.5,312C 413.123,310.602 423.79,306.769 433.5,300.5 Z"/>
  </g>
  <g transform="matrix(0.806371, 0, 0, 0.768887, -146.917389, -47.691246)" style="">
    <path style="opacity: 1; fill: rgb(255, 255, 255);" d="M 596.5,322.5 C 610.849,322.167 625.182,322.501 639.5,323.5C 629.907,343.021 620.074,362.354 610,381.5C 605.599,382.467 601.099,382.8 596.5,382.5C 596.5,362.5 596.5,342.5 596.5,322.5 Z"/>
  </g>
  <g transform="matrix(0.806371, 0, 0, 0.768887, -146.917389, -47.691246)" style="">
    <path style="opacity: 1; fill: rgb(255, 255, 255);" d="M 585.5,344.5 C 586.495,357.323 586.829,370.323 586.5,383.5C 581.156,383.666 575.823,383.499 570.5,383C 575.05,380.117 578.55,376.284 581,371.5C 582.219,364.579 582.886,357.579 583,350.5C 584.122,348.593 584.955,346.593 585.5,344.5 Z"/>
  </g>
  <g transform="matrix(0.806371, 0, 0, 0.768887, -146.917389, -47.691246)" style="">
    <path style="opacity: 1; fill: rgb(255, 255, 255);" d="M 534.5,393.5 C 551.833,393.5 569.167,393.5 586.5,393.5C 586.666,403.839 586.5,414.172 586,424.5C 584,427.833 582,431.167 580,434.5C 579,435.833 578,435.833 577,434.5C 572.697,427.366 568.197,420.366 563.5,413.5C 561.809,411.744 559.809,411.244 557.5,412C 550.27,422.903 543.437,434.069 537,445.5C 536.104,448.025 536.604,450.192 538.5,452C 548.833,452.333 559.167,452.667 569.5,453C 557.327,454.479 544.994,454.979 532.5,454.5C 531.914,444.062 530.58,433.729 528.5,423.5C 530.708,413.542 532.708,403.542 534.5,393.5 Z"/>
  </g>
  <g transform="matrix(0.806371, 0, 0, 0.768887, -146.917389, -47.691246)" style="">
    <path style="opacity: 1; fill: rgb(17, 74, 143);" d="M 558.5,423.5 C 563.513,429.668 568.179,436.168 572.5,443C 564.147,443.832 555.813,443.665 547.5,442.5C 551.431,436.303 555.098,429.969 558.5,423.5 Z"/>
  </g>
  <g transform="matrix(0.806371, 0, 0, 0.768887, -146.917389, -47.691246)" style="">
    <path style="opacity: 1; fill: rgb(255, 255, 255);" d="M 450.5,464.5 C 467.325,463.503 484.325,463.17 501.5,463.5C 501.667,488.502 501.5,513.502 501,538.5C 484.391,513.594 467.558,488.927 450.5,464.5 Z"/>
  </g>
  <g transform="matrix(0.806371, 0, 0, 0.768887, -146.917389, -47.691246)" style="">
    <path style="opacity: 1; fill: rgb(255, 255, 255);" d="M 513.5,464.5 C 529.181,464.167 544.848,464.501 560.5,465.5C 545.248,489.005 529.748,512.338 514,535.5C 513.5,511.836 513.333,488.169 513.5,464.5 Z"/>
  </g>
</svg>