<?xml version="1.0" encoding="utf-8"?>
<svg xmlns="http://www.w3.org/2000/svg" viewBox="0 0 500 500" style="shape-rendering: geometricprecision;">
  <g transform="matrix(0.497028, 0, 0, 0.495969, -1.058381, -3.453927)" style="">
    <path style="opacity: 1; fill: rgb(39, 43, 65);" d="M -0.5,-0.5 C 340.833,-0.5 682.167,-0.5 1023.5,-0.5C 1023.5,340.833 1023.5,682.167 1023.5,1023.5C 682.167,1023.5 340.833,1023.5 -0.5,1023.5C -0.5,682.167 -0.5,340.833 -0.5,-0.5 Z"/>
  </g>
  <g transform="matrix(0.618584, 0, 0, 0.617266, -69.949905, -45.867779)" style="">
    <path style="opacity:1" fill="#2b74c7" d="M 676.5,258.5 C 679.139,276.17 679.139,293.837 676.5,311.5C 673.824,324.374 669.99,337.041 665,349.5C 641,396.452 615,442.119 587,486.5C 564.333,520.5 541.667,554.5 519,588.5C 510.667,597.833 502.333,597.833 494,588.5C 444.918,519.367 399.585,447.7 358,373.5C 325.63,318.189 324.297,262.189 354,205.5C 394.998,144.422 452.498,116.589 526.5,122C 593.893,131.413 641.06,167.247 668,229.5C 671.325,239.153 674.158,248.82 676.5,258.5 Z"/>
  </g>
  <g transform="matrix(0.618584, 0, 0, 0.617266, -69.949905, -45.867779)" style="">
    <path style="opacity: 1; fill: rgb(39, 43, 65);" d="M 495.5,140.5 C 538.4,139.299 576.4,152.133 609.5,179C 654.178,224.046 667.012,276.879 648,337.5C 607.788,414.96 562.788,489.293 513,560.5C 508.99,566.644 504.656,566.977 500,561.5C 451.036,491.146 406.036,418.146 365,342.5C 343.833,287.693 351.833,237.693 389,192.5C 417.753,161.374 453.253,144.04 495.5,140.5 Z"/>
  </g>
  <g transform="matrix(0.618584, 0, 0, 0.617266, -69.949905, -45.867779)" style="">
    <path style="opacity:1" fill="#2b74c7" d="M 480.5,167.5 C 490.58,167.077 500.58,167.577 510.5,169C 501.682,175.133 492.348,180.466 482.5,185C 470.195,193.31 460.695,204.143 454,217.5C 454.001,205.824 449.501,203.657 440.5,211C 428.747,219.332 421.081,230.498 417.5,244.5C 416.5,242.833 415.167,241.5 413.5,240.5C 404.807,246.193 399.307,254.193 397,264.5C 396.107,274.416 396.607,284.249 398.5,294C 398.589,296.723 397.923,299.223 396.5,301.5C 380.683,258.603 390.016,222.103 424.5,192C 441.16,179.168 459.827,171.002 480.5,167.5 Z"/>
  </g>
  <g transform="matrix(0.618584, 0, 0, 0.617266, -69.949905, -45.867779)" style="">
    <path style="opacity:1" fill="#2b75c7" d="M 522.5,172.5 C 535.343,171.282 546.843,174.615 557,182.5C 570.279,179.119 575.946,184.119 574,197.5C 572.705,203.113 569.705,207.447 565,210.5C 562.03,204.74 558.196,199.574 553.5,195C 550.431,193.09 547.431,193.09 544.5,195C 549.431,199.538 551.931,205.038 552,211.5C 536.156,226.005 518.656,238.172 499.5,248C 496.151,255.703 492.985,263.536 490,271.5C 485.26,277.917 478.927,281.25 471,281.5C 464.988,280.747 459.155,279.247 453.5,277C 448.331,275.705 443.831,276.872 440,280.5C 437.707,284.252 435.54,288.086 433.5,292C 425.804,297.176 417.471,300.009 408.5,300.5C 413,293.5 417.5,286.5 422,279.5C 426.513,274.659 432.013,271.492 438.5,270C 452.269,269.581 465.269,266.247 477.5,260C 483.664,255.169 488.331,249.169 491.5,242C 503.624,237.208 514.124,230.042 523,220.5C 525.03,217.774 526.53,214.774 527.5,211.5C 527.124,209.617 526.124,208.117 524.5,207C 515.446,203.671 506.446,203.837 497.5,207.5C 500.144,191.915 508.477,180.249 522.5,172.5 Z"/>
  </g>
  <g transform="matrix(0.618584, 0, 0, 0.617266, -69.949905, -45.867779)" style="">
    <path style="opacity:1" fill="#2c75c8" d="M 493.5,187.5 C 489.989,201.289 482.655,213.122 471.5,223C 466.923,226.54 462.09,229.706 457,232.5C 462.739,212.263 474.906,197.263 493.5,187.5 Z"/>
  </g>
  <g transform="matrix(0.618584, 0, 0, 0.617266, -69.949905, -45.867779)" style="">
    <path style="opacity:1" fill="#2c77cb" d="M 504.5,212.5 C 508.884,212.174 513.217,212.508 517.5,213.5C 509.745,224.064 499.412,230.897 486.5,234C 480.881,235.299 475.214,235.632 469.5,235C 478.999,223.929 490.666,216.429 504.5,212.5 Z"/>
  </g>
  <g transform="matrix(0.618584, 0, 0, 0.617266, -69.949905, -45.867779)" style="">
    <path style="opacity:1" fill="#2b73c5" d="M 557.5,216.5 C 560.394,217.882 562.894,219.882 565,222.5C 571.053,237.716 575.387,253.383 578,269.5C 583.37,281.738 588.87,293.905 594.5,306C 594.402,308.873 593.068,310.873 590.5,312C 583.833,312.333 577.167,312.667 570.5,313C 569.062,313.219 567.729,313.719 566.5,314.5C 569.844,316.932 573.344,319.266 577,321.5C 577.92,324.308 577.087,326.475 574.5,328C 571.211,328.882 567.877,329.548 564.5,330C 562.077,331.571 560.744,333.737 560.5,336.5C 563.156,335.842 565.822,335.175 568.5,334.5C 570.985,334.239 572.652,335.239 573.5,337.5C 572.01,341.639 570.677,345.806 569.5,350C 570.471,355.146 570.637,360.313 570,365.5C 567.749,370.369 563.915,372.869 558.5,373C 538.321,373.831 518.988,370.164 500.5,362C 494.938,359.106 489.938,355.439 485.5,351C 484.668,350.312 484.002,350.479 483.5,351.5C 487.525,361.409 494.192,368.909 503.5,374C 508.621,376.644 513.788,379.144 519,381.5C 519.869,383.581 520.369,385.747 520.5,388C 517.917,399.414 515.917,410.914 514.5,422.5C 515.382,431.341 516.882,440.008 519,448.5C 485.912,426.535 451.079,407.535 414.5,391.5C 425.116,383.271 431.949,372.605 435,359.5C 439.358,355.804 443.025,351.47 446,346.5C 447.836,340.489 449.669,334.489 451.5,328.5C 457.42,332.187 463.42,332.353 469.5,329C 471.155,327.556 471.822,325.722 471.5,323.5C 458.66,324.514 450.16,318.847 446,306.5C 443.553,299.371 444.053,292.538 447.5,286C 450.192,285.57 452.859,285.737 455.5,286.5C 454.035,290.389 453.535,294.389 454,298.5C 455.413,301.661 457.08,304.661 459,307.5C 460.011,308.337 461.178,308.67 462.5,308.5C 462.388,304.604 461.388,300.937 459.5,297.5C 460.095,295.143 461.095,292.977 462.5,291C 476.751,292.964 488.251,288.131 497,276.5C 500.448,269.35 503.281,262.017 505.5,254.5C 522.201,245.487 537.867,234.987 552.5,223C 554.79,221.223 556.457,219.056 557.5,216.5 Z"/>
  </g>
  <g transform="matrix(0.618584, 0, 0, 0.617266, -69.949905, -45.867779)" style="">
    <path style="opacity:1" fill="#2c76ca" d="M 444.5,216.5 C 446.522,235.222 440.022,250.556 425,262.5C 423.458,249.127 426.792,237.127 435,226.5C 438.371,223.297 441.538,219.964 444.5,216.5 Z"/>
  </g>
  <g transform="matrix(0.618584, 0, 0, 0.617266, -69.949905, -45.867779)" style="">
    <path style="opacity:1" fill="#2b75c8" d="M 461.5,243.5 C 468.2,243.17 474.866,243.503 481.5,244.5C 475.343,252.418 467.343,257.585 457.5,260C 451.108,260.896 444.775,261.563 438.5,262C 443.734,252.579 451.4,246.413 461.5,243.5 Z"/>
  </g>
  <g transform="matrix(0.618584, 0, 0, 0.617266, -69.949905, -45.867779)" style="">
    <path style="opacity:1" fill="#111923" d="M 554.5,254.5 C 557.518,254.335 560.518,254.502 563.5,255C 566.654,257.775 567.154,260.942 565,264.5C 562.572,267.598 559.572,269.931 556,271.5C 555.373,275.552 553.873,279.218 551.5,282.5C 547.5,280.167 543.5,277.833 539.5,275.5C 543.629,273.683 547.129,271.016 550,267.5C 550.667,266.833 550.667,266.167 550,265.5C 541.205,268.433 532.538,271.766 524,275.5C 522.054,275.237 521.388,274.237 522,272.5C 531.505,264 542.338,258 554.5,254.5 Z"/>
  </g>
  <g transform="matrix(0.618584, 0, 0, 0.617266, -69.949905, -45.867779)" style="">
    <path style="opacity:1" fill="#2c76c9" d="M 411.5,250.5 C 418.115,264.224 416.282,276.89 406,288.5C 401.189,274.742 403.022,262.076 411.5,250.5 Z"/>
  </g>
  <g transform="matrix(0.618584, 0, 0, 0.617266, -69.949905, -45.867779)" style="">
    <path style="opacity:1" fill="#0c0809" d="M 676.5,311.5 C 679.139,293.837 679.139,276.17 676.5,258.5C 677.417,258.494 677.917,259.494 678,261.5C 680.22,279.22 679.887,296.886 677,314.5C 676.517,313.552 676.351,312.552 676.5,311.5 Z"/>
  </g>
  <g transform="matrix(0.618584, 0, 0, 0.617266, -69.949905, -45.867779)" style="">
    <path style="opacity:1" fill="#2b74c6" d="M 433.5,300.5 C 442.65,316.61 442.816,332.944 434,349.5C 431.079,353.092 427.579,355.925 423.5,358C 419.807,366.384 413.474,370.717 404.5,371C 406.764,367.139 408.764,363.139 410.5,359C 403.509,355.683 397.343,351.183 392,345.5C 385.311,331.672 388.478,320.505 401.5,312C 413.123,310.602 423.79,306.769 433.5,300.5 Z"/>
  </g>
  <g transform="matrix(0.618584, 0, 0, 0.617266, -69.949905, -45.867779)" style="">
    <path style="opacity: 1; fill: rgb(17, 25, 35);" d="M 596.5,322.5 C 610.849,322.167 625.182,322.501 639.5,323.5C 629.907,343.021 620.074,362.354 610,381.5C 605.599,382.467 601.099,382.8 596.5,382.5C 596.5,362.5 596.5,342.5 596.5,322.5 Z"/>
  </g>
  <g transform="matrix(0.618584, 0, 0, 0.617266, -69.949905, -45.867779)" style="">
    <path style="opacity: 1; fill: rgb(17, 25, 35);" d="M 585.5,344.5 C 586.495,357.323 586.829,370.323 586.5,383.5C 581.156,383.666 575.823,383.499 570.5,383C 575.05,380.117 578.55,376.284 581,371.5C 582.219,364.579 582.886,357.579 583,350.5C 584.122,348.593 584.955,346.593 585.5,344.5 Z"/>
  </g>
  <g transform="matrix(0.618584, 0, 0, 0.617266, -69.949905, -45.867779)" style="">
    <path style="opacity: 1; fill: rgb(17, 25, 35);" d="M 534.5,393.5 C 551.833,393.5 569.167,393.5 586.5,393.5C 586.666,403.839 586.5,414.172 586,424.5C 584,427.833 582,431.167 580,434.5C 579,435.833 578,435.833 577,434.5C 572.697,427.366 568.197,420.366 563.5,413.5C 561.809,411.744 559.809,411.244 557.5,412C 550.27,422.903 543.437,434.069 537,445.5C 536.104,448.025 536.604,450.192 538.5,452C 548.833,452.333 559.167,452.667 569.5,453C 557.327,454.479 544.994,454.979 532.5,454.5C 531.914,444.062 530.58,433.729 528.5,423.5C 530.708,413.542 532.708,403.542 534.5,393.5 Z"/>
  </g>
  <g transform="matrix(0.618584, 0, 0, 0.617266, -69.949905, -45.867779)" style="">
    <path style="opacity:1" fill="#2c78cd" d="M 558.5,423.5 C 563.513,429.668 568.179,436.168 572.5,443C 564.147,443.832 555.813,443.665 547.5,442.5C 551.431,436.303 555.098,429.969 558.5,423.5 Z"/>
  </g>
  <g transform="matrix(0.618584, 0, 0, 0.617266, -69.949905, -45.867779)" style="">
    <path style="opacity: 1; fill: rgb(17, 25, 35);" d="M 450.5,464.5 C 467.325,463.503 484.325,463.17 501.5,463.5C 501.667,488.502 501.5,513.502 501,538.5C 484.391,513.594 467.558,488.927 450.5,464.5 Z"/>
  </g>
  <g transform="matrix(0.618584, 0, 0, 0.617266, -69.949905, -45.867779)" style="">
    <path style="opacity: 1; fill: rgb(17, 25, 35);" d="M 513.5,464.5 C 529.181,464.167 544.848,464.501 560.5,465.5C 545.248,489.005 529.748,512.338 514,535.5C 513.5,511.836 513.333,488.169 513.5,464.5 Z"/>
  </g>
  <g transform="matrix(0.618584, 0, 0, 0.617266, -69.949905, -45.867779)" style="">
    <path style="opacity:1" fill="#030406" d="M 723.5,672.5 C 722.542,673.962 721.376,675.295 720,676.5C 719.5,659.503 719.333,642.503 719.5,625.5C 710.5,625.5 701.5,625.5 692.5,625.5C 692.5,673.5 692.5,721.5 692.5,769.5C 701.5,769.5 710.5,769.5 719.5,769.5C 719.333,747.497 719.5,725.497 720,703.5C 720.744,701.1 721.577,698.767 722.5,696.5C 723.043,696.56 723.376,696.893 723.5,697.5C 722.355,700.748 721.521,704.081 721,707.5C 720.667,728.5 720.333,749.5 720,770.5C 710.667,771.833 701.333,771.833 692,770.5C 691.333,721.833 691.333,673.167 692,624.5C 701.333,623.167 710.667,623.167 720,624.5C 720.333,640.833 720.667,657.167 721,673.5C 721.671,672.748 722.504,672.414 723.5,672.5 Z"/>
  </g>
  <g transform="matrix(0.618584, 0, 0, 0.617266, -69.949905, -45.867779)" style="">
    <path style="opacity:1" fill="#000002" d="M 539.5,770.5 C 530.348,771.494 521.015,771.827 511.5,771.5C 511.333,722.499 511.5,673.499 512,624.5C 521.333,623.167 530.667,623.167 540,624.5C 540.832,673.335 540.665,722.002 539.5,770.5 Z"/>
  </g>
  <g transform="matrix(0.618584, 0, 0, 0.617266, -69.949905, -45.867779)" style="">
    <path style="opacity:1" fill="#efefee" d="M 539.5,770.5 C 530.5,770.5 521.5,770.5 512.5,770.5C 512.5,722.167 512.5,673.833 512.5,625.5C 521.5,625.5 530.5,625.5 539.5,625.5C 539.5,673.833 539.5,722.167 539.5,770.5 Z"/>
  </g>
  <g transform="matrix(0.618584, 0, 0, 0.617266, -69.949905, -45.867779)" style="">
    <path style="opacity:1" fill="#f2f2ed" d="M 723.5,672.5 C 740.962,659.489 759.295,658.155 778.5,668.5C 787.759,676.689 792.425,687.022 792.5,699.5C 792.5,722.833 792.5,746.167 792.5,769.5C 783.833,769.5 775.167,769.5 766.5,769.5C 766.831,747.66 766.497,725.994 765.5,704.5C 765.733,695.923 762.066,689.756 754.5,686C 745.307,683.224 736.64,684.224 728.5,689C 726.959,690.371 725.625,691.871 724.5,693.5C 723.599,694.29 722.932,695.29 722.5,696.5C 721.577,698.767 720.744,701.1 720,703.5C 719.5,725.497 719.333,747.497 719.5,769.5C 710.5,769.5 701.5,769.5 692.5,769.5C 692.5,721.5 692.5,673.5 692.5,625.5C 701.5,625.5 710.5,625.5 719.5,625.5C 719.333,642.503 719.5,659.503 720,676.5C 721.376,675.295 722.542,673.962 723.5,672.5 Z"/>
  </g>
  <g transform="matrix(0.618584, 0, 0, 0.617266, -69.949905, -45.867779)" style="">
    <path style="opacity:1" fill="#090b0e" d="M 236.5,626.5 C 257.663,625.337 278.996,625.171 300.5,626C 317.919,627.468 333.252,633.801 346.5,645C 348.79,646.777 350.457,648.944 351.5,651.5C 338.837,638.667 323.503,630.834 305.5,628C 282.529,626.6 259.529,626.1 236.5,626.5 Z"/>
  </g>
  <g transform="matrix(0.618584, 0, 0, 0.617266, -69.949905, -45.867779)" style="">
    <path style="opacity:1" fill="#f1f0ec" d="M 590.5,759.5 C 589.501,773.087 589.168,787.421 589.5,802.5C 580.5,802.5 571.5,802.5 562.5,802.5C 562.5,756.5 562.5,710.5 562.5,664.5C 571.167,664.5 579.833,664.5 588.5,664.5C 588.334,668.846 588.501,673.179 589,677.5C 606.51,660.332 626.343,657.165 648.5,668C 671.021,684.248 679.188,706.081 673,733.5C 664.498,760.663 645.998,773.829 617.5,773C 606.834,771.667 597.834,767.167 590.5,759.5 Z"/>
  </g>
  <g transform="matrix(0.618584, 0, 0, 0.617266, -69.949905, -45.867779)" style="">
    <path style="opacity:1" fill="#f1f0ec" d="M 514.5,626.5 C 522.167,626.5 529.833,626.5 537.5,626.5C 537.5,673.833 537.5,721.167 537.5,768.5C 529.833,768.5 522.167,768.5 514.5,768.5C 514.5,721.167 514.5,673.833 514.5,626.5 Z"/>
  </g>
  <g transform="matrix(0.618584, 0, 0, 0.617266, -69.949905, -45.867779)" style="">
    <path style="opacity: 1; fill: rgb(39, 43, 65);" d="M 639.5,693.5 C 638.957,693.56 638.624,693.893 638.5,694.5C 646.059,704.218 648.559,715.218 646,727.5C 640.08,744.373 628.247,752.039 610.5,750.5C 600.072,748.373 592.905,742.373 589,732.5C 588.333,723.167 588.333,713.833 589,704.5C 593.582,691.207 602.916,684.54 617,684.5C 625.973,684.078 633.473,687.078 639.5,693.5 Z"/>
  </g>
  <g transform="matrix(0.618584, 0, 0, 0.617266, -69.949905, -45.867779)" style="">
    <path style="opacity:1" fill="#f0f0ec" d="M 236.5,626.5 C 259.529,626.1 282.529,626.6 305.5,628C 323.503,630.834 338.837,638.667 351.5,651.5C 370.872,677.352 373.705,705.019 360,734.5C 354.72,742.945 348.22,750.278 340.5,756.5C 329.353,762.939 317.353,767.105 304.5,769C 281.861,770.385 259.194,770.885 236.5,770.5C 236.5,722.5 236.5,674.5 236.5,626.5 Z"/>
  </g>
  <g transform="matrix(0.618584, 0, 0, 0.617266, -69.949905, -45.867779)" style="">
    <path style="opacity: 1; fill: rgb(39, 43, 65);" d="M 296.5,651.5 C 331.366,658.551 345.199,679.551 338,714.5C 335.283,723.035 330.45,730.035 323.5,735.5C 323.44,734.957 323.107,734.624 322.5,734.5C 314.329,739.946 305.329,743.113 295.5,744C 285.506,744.5 275.506,744.666 265.5,744.5C 265.5,713.833 265.5,683.167 265.5,652.5C 276.014,652.828 286.347,652.494 296.5,651.5 Z"/>
  </g>
  <g transform="matrix(0.618584, 0, 0, 0.617266, -69.949905, -45.867779)" style="">
    <path style="opacity:1" fill="#101214" d="M 296.5,651.5 C 286.347,652.494 276.014,652.828 265.5,652.5C 265.5,683.167 265.5,713.833 265.5,744.5C 275.506,744.666 285.506,744.5 295.5,744C 305.329,743.113 314.329,739.946 322.5,734.5C 323.107,734.624 323.44,734.957 323.5,735.5C 316.555,740.302 308.888,743.469 300.5,745C 288.536,746.276 276.536,746.776 264.5,746.5C 264.5,714.5 264.5,682.5 264.5,650.5C 275.19,650.321 285.857,650.655 296.5,651.5 Z"/>
  </g>
  <g transform="matrix(0.618584, 0, 0, 0.617266, -69.949905, -45.867779)" style="">
    <path style="opacity:1" fill="#040506" d="M 765.5,704.5 C 765.667,726.503 765.5,748.503 765,770.5C 764.667,747.5 764.333,724.5 764,701.5C 761.916,690.865 755.416,685.532 744.5,685.5C 736.673,685.664 730.173,688.664 725,694.5C 724.601,694.272 724.435,693.938 724.5,693.5C 725.625,691.871 726.959,690.371 728.5,689C 736.64,684.224 745.307,683.224 754.5,686C 762.066,689.756 765.733,695.923 765.5,704.5 Z"/>
  </g>
  <g transform="matrix(0.618584, 0, 0, 0.617266, -69.949905, -45.867779)" style="">
    <path style="opacity:1" fill="#02040a" d="M 778.5,668.5 C 782.434,670.598 785.6,673.598 788,677.5C 791.141,683.116 793.141,689.116 794,695.5C 794.667,720.167 794.667,744.833 794,769.5C 793.832,745.996 793.332,722.663 792.5,699.5C 792.425,687.022 787.759,676.689 778.5,668.5 Z"/>
  </g>
  <g transform="matrix(0.618584, 0, 0, 0.617266, -69.949905, -45.867779)" style="">
    <path style="opacity:1" fill="#f2f1ed" d="M 410.5,724.5 C 410.833,726.5 411.167,728.5 411.5,730.5C 419.451,749.639 433.451,756.139 453.5,750C 458.65,746.844 463.15,743.011 467,738.5C 474.762,740.286 482.595,741.619 490.5,742.5C 486.176,754.994 477.843,763.827 465.5,769C 435.013,779.392 410.513,771.559 392,745.5C 380.936,723.676 382.269,702.676 396,682.5C 418.184,659.264 443.351,655.431 471.5,671C 488.01,684.535 495.344,702.035 493.5,723.5C 465.662,723.169 437.995,723.502 410.5,724.5 Z"/>
  </g>
  <g transform="matrix(0.618584, 0, 0, 0.617266, -69.949905, -45.867779)" style="">
    <path style="opacity:1" fill="#7e8284" d="M 411.5,705.5 C 429.833,706.833 448.167,706.833 466.5,705.5C 467.043,705.56 467.376,705.893 467.5,706.5C 448.5,707.833 429.5,707.833 410.5,706.5C 410.624,705.893 410.957,705.56 411.5,705.5 Z"/>
  </g>
  <g transform="matrix(0.618584, 0, 0, 0.617266, -69.949905, -45.867779)" style="">
    <path style="opacity:1" fill="#050609" d="M 466.5,705.5 C 448.167,706.833 429.833,706.833 411.5,705.5C 411.846,701.148 413.512,697.481 416.5,694.5C 415.267,698.032 413.933,701.532 412.5,705C 430.164,705.5 447.83,705.667 465.5,705.5C 462.602,691.107 453.768,683.774 439,683.5C 433.939,683.576 429.272,684.91 425,687.5C 424.601,687.272 424.435,686.938 424.5,686.5C 428.55,683.376 433.217,682.043 438.5,682.5C 454.546,682.227 463.879,689.894 466.5,705.5 Z"/>
  </g>
  <g transform="matrix(0.618584, 0, 0, 0.617266, -69.949905, -45.867779)" style="">
    <path style="opacity: 1; fill: rgb(39, 43, 65);" d="M 416.5,694.5 C 418.167,690.833 420.833,688.167 424.5,686.5C 424.435,686.938 424.601,687.272 425,687.5C 429.272,684.91 433.939,683.576 439,683.5C 453.768,683.774 462.602,691.107 465.5,705.5C 447.83,705.667 430.164,705.5 412.5,705C 413.933,701.532 415.267,698.032 416.5,694.5 Z"/>
  </g>
  <g transform="matrix(0.618584, 0, 0, 0.617266, -69.949905, -45.867779)" style="">
    <path style="opacity:1" fill="#101114" d="M 639.5,693.5 C 649.665,706.802 651.165,721.135 644,736.5C 636.068,748.867 624.901,753.534 610.5,750.5C 628.247,752.039 640.08,744.373 646,727.5C 648.559,715.218 646.059,704.218 638.5,694.5C 638.624,693.893 638.957,693.56 639.5,693.5 Z"/>
  </g>
  <g transform="matrix(0.618584, 0, 0, 0.617266, -69.949905, -45.867779)" style="">
    <path style="opacity:1" fill="#000003" d="M 410.5,724.5 C 438.169,724.333 465.835,724.5 493.5,725C 466.502,725.5 439.502,725.667 412.5,725.5C 412.784,727.415 412.451,729.081 411.5,730.5C 411.167,728.5 410.833,726.5 410.5,724.5 Z"/>
  </g>
  <g transform="matrix(0.618584, 0, 0, 0.617266, -69.949905, -45.867779)" style="">
    <path style="opacity:1" fill="#080b10" d="M 588.5,664.5 C 579.833,664.5 571.167,664.5 562.5,664.5C 562.5,710.5 562.5,756.5 562.5,802.5C 571.5,802.5 580.5,802.5 589.5,802.5C 589.168,787.421 589.501,773.087 590.5,759.5C 590.667,774.17 590.5,788.837 590,803.5C 580.53,804.823 571.03,804.823 561.5,803.5C 560.333,757.17 560.167,710.837 561,664.5C 570.265,663.172 579.432,663.172 588.5,664.5 Z"/>
  </g>
  <g transform="matrix(0.618584, 0, 0, 0.617266, -69.949905, -45.867779)" style="">
    <path style="opacity:1" fill="#06070a" d="M 340.5,756.5 C 330.492,763.992 319.159,768.492 306.5,770C 293.532,771.08 280.532,771.58 267.5,771.5C 256.995,771.5 246.661,771.167 236.5,770.5C 259.194,770.885 281.861,770.385 304.5,769C 317.353,767.105 329.353,762.939 340.5,756.5 Z"/>
  </g>
</svg>